<?xml version="1.0" standalone="no"?>
<!DOCTYPE svg PUBLIC "-//W3C//DTD SVG 20010904//EN"
 "http://www.w3.org/TR/2001/REC-SVG-20010904/DTD/svg10.dtd">
<svg version="1.0" xmlns="http://www.w3.org/2000/svg"
 width="1024.000000pt" height="1024.000000pt" viewBox="0 0 1024.000000 1024.000000"
 preserveAspectRatio="xMidYMid meet">
<metadata>
Created by potrace 1.11, written by Peter Selinger 2001-2013
</metadata>
<g transform="translate(0.000000,1024.000000) scale(0.100000,-0.100000)"
fill="#000000" stroke="none">
<path d="M4743 10180 c-13 -5 -23 -7 -23 -3 0 3 -6 1 -12 -5 -7 -5 -23 -8 -35
-6 -13 2 -23 -1 -23 -7 0 -6 -7 -9 -15 -6 -8 4 -17 2 -20 -3 -3 -5 -31 -8 -63
-8 -55 1 -124 -15 -148 -33 -6 -5 -14 -6 -17 -2 -4 3 -13 0 -22 -7 -8 -7 -15
-10 -15 -7 0 4 -29 -7 -64 -23 -35 -15 -67 -26 -70 -23 -3 4 -6 1 -6 -6 0 -6
-6 -11 -12 -10 -21 3 -79 -27 -71 -36 5 -4 3 -5 -3 -2 -12 7 -164 -68 -176
-86 -4 -7 -8 -8 -8 -4 0 4 -25 -8 -55 -28 -30 -19 -55 -31 -55 -27 0 4 -4 2
-8 -3 -12 -18 -112 -79 -112 -69 0 2 -9 -5 -20 -16 -11 -11 -27 -20 -35 -20
-8 0 -15 -3 -15 -8 0 -4 -16 -16 -36 -27 -34 -18 -46 -28 -106 -81 -16 -13
-28 -22 -28 -18 0 3 -15 -11 -34 -30 -18 -20 -36 -33 -39 -29 -4 3 -9 -2 -13
-11 -3 -9 -10 -16 -16 -16 -32 0 -228 -181 -284 -262 -16 -23 -53 -66 -82 -97
-91 -97 -108 -116 -127 -149 -11 -18 -24 -32 -29 -32 -5 0 -7 -3 -3 -6 11 -11
-63 -103 -161 -201 -118 -117 -140 -135 -152 -128 -6 4 -10 2 -10 -2 0 -5 -15
-17 -32 -28 -18 -10 -41 -29 -51 -42 -10 -13 -25 -23 -33 -23 -8 0 -14 -4 -14
-9 0 -8 -32 -22 -55 -25 -5 -1 -12 -4 -15 -7 -23 -27 -124 -107 -131 -103 -5
3 -9 1 -9 -4 0 -4 -15 -16 -32 -25 -18 -10 -46 -26 -63 -37 -16 -11 -45 -27
-63 -35 -17 -8 -32 -20 -32 -26 0 -5 -3 -8 -8 -5 -12 7 -301 -289 -328 -336
-13 -24 -34 -63 -47 -88 -12 -25 -25 -46 -29 -48 -5 -2 -8 -9 -8 -16 0 -7 -13
-31 -29 -53 -16 -23 -27 -44 -24 -47 4 -3 1 -6 -5 -6 -7 0 -18 -16 -26 -35 -8
-19 -20 -35 -25 -35 -6 0 -10 -3 -9 -7 1 -5 -8 -28 -20 -52 -12 -25 -23 -65
-23 -90 -1 -25 -6 -52 -12 -58 -5 -7 -6 -13 -2 -13 4 0 0 -12 -10 -26 -9 -14
-21 -53 -25 -87 -5 -33 -13 -63 -18 -66 -4 -3 -7 -31 -7 -61 1 -30 -1 -59 -4
-65 -12 -23 -14 -56 -16 -425 -2 -249 -7 -395 -14 -413 -6 -16 -11 -69 -11
-118 0 -59 -5 -100 -14 -118 -8 -15 -13 -42 -10 -59 3 -21 1 -32 -7 -32 -6 0
-9 -8 -6 -20 3 -11 1 -20 -3 -20 -5 0 -11 -13 -15 -30 -4 -16 -11 -30 -16 -30
-6 0 -7 -4 -4 -10 3 -5 0 -20 -7 -32 -11 -22 -16 -35 -22 -68 -2 -8 -6 -22 -9
-30 -3 -8 -11 -34 -17 -57 -6 -23 -15 -45 -20 -48 -6 -4 -8 -11 -5 -16 4 -5 2
-9 -3 -9 -6 0 -18 -22 -28 -49 -10 -28 -21 -48 -26 -45 -4 3 -8 0 -8 -5 0 -22
-2 -26 -15 -34 -7 -4 -19 -23 -25 -42 -6 -19 -15 -35 -20 -35 -5 0 -7 -9 -5
-20 2 -11 0 -20 -6 -20 -5 0 -9 -7 -9 -15 0 -9 -10 -35 -22 -58 -12 -23 -21
-48 -20 -54 2 -7 -1 -13 -7 -13 -5 0 -12 -18 -16 -40 -4 -22 -13 -47 -22 -55
-8 -8 -11 -15 -8 -15 4 0 1 -10 -7 -22 -8 -13 -21 -41 -28 -63 -7 -22 -21 -59
-32 -81 -10 -23 -18 -45 -17 -50 2 -5 -11 -37 -28 -72 -20 -42 -30 -76 -29
-102 1 -22 -2 -40 -7 -40 -5 0 -7 -10 -6 -22 1 -13 -2 -31 -6 -41 -9 -21 0
-127 12 -136 12 -9 8 -132 -5 -164 -16 -39 -17 -500 0 -530 6 -12 33 -44 60
-72 46 -47 48 -52 48 -105 0 -31 6 -64 14 -75 7 -10 12 -31 10 -47 -2 -15 1
-28 7 -28 6 0 8 -4 4 -9 -3 -5 -1 -12 4 -15 5 -4 8 -22 6 -42 -2 -33 13 -84
25 -84 3 0 5 -17 4 -37 -1 -21 4 -50 12 -65 8 -16 12 -28 8 -28 -4 0 -1 -7 6
-15 7 -8 10 -15 6 -15 -3 0 3 -15 14 -32 11 -18 20 -43 20 -56 0 -21 36 -100
51 -112 4 -3 9 -15 13 -27 4 -13 11 -23 15 -23 4 0 7 -10 6 -22 -1 -13 9 -45
23 -73 14 -27 25 -53 24 -57 -1 -5 2 -8 8 -8 5 0 7 -7 4 -15 -4 -8 -1 -15 5
-15 6 0 9 -15 7 -37 -1 -21 3 -47 9 -58 7 -11 15 -42 19 -69 3 -28 11 -53 17
-57 8 -5 8 -9 0 -14 -16 -9 -93 66 -86 84 4 11 2 11 -8 3 -8 -7 -17 -9 -21 -5
-6 7 -24 12 -56 17 -9 1 -22 6 -29 11 -9 5 -12 4 -8 -2 7 -12 -40 -36 -54 -27
-5 3 -8 0 -7 -8 2 -7 -3 -12 -10 -10 -6 1 -11 -1 -10 -5 1 -5 -3 -18 -10 -31
-7 -12 -10 -27 -7 -32 3 -6 1 -10 -4 -10 -12 0 -15 -43 -4 -54 4 -3 8 -16 10
-29 2 -12 10 -25 18 -30 9 -4 12 -14 9 -20 -4 -7 -4 -9 0 -5 5 4 39 -26 76
-65 91 -95 100 -106 100 -115 0 -5 13 -21 30 -37 16 -15 27 -31 25 -35 -3 -4
6 -15 20 -24 14 -9 25 -21 25 -26 0 -9 15 -27 60 -75 11 -12 20 -25 20 -31 0
-5 9 -17 20 -27 11 -9 20 -23 20 -31 0 -8 9 -18 20 -21 11 -4 18 -10 15 -15
-3 -5 8 -23 24 -41 17 -18 28 -35 26 -39 -2 -3 5 -13 16 -20 10 -8 19 -19 19
-24 0 -5 10 -18 23 -30 12 -12 23 -29 25 -37 2 -7 10 -17 17 -22 14 -7 25 -19
53 -52 7 -8 10 -20 6 -27 -4 -6 -3 -8 4 -4 10 6 52 -30 52 -45 0 -4 9 -11 21
-14 17 -6 18 -9 7 -23 -7 -9 -8 -13 -2 -9 12 7 46 -28 36 -38 -4 -4 -2 -5 4
-3 6 1 28 -16 50 -39 56 -59 64 -70 56 -78 -4 -4 -2 -5 4 -3 17 5 96 -81 88
-95 -4 -7 -4 -9 0 -6 11 10 78 -60 70 -73 -4 -6 -3 -8 3 -5 6 4 25 2 44 -4 45
-14 109 -18 109 -6 0 5 5 7 12 5 11 -4 30 8 63 39 7 7 16 9 19 5 4 -3 4 1 0
11 -3 9 -1 17 4 17 6 0 9 9 7 20 -2 11 0 20 5 20 7 0 7 50 0 58 -1 1 -3 5 -5
10 -1 4 -5 15 -9 24 -4 10 -6 23 -3 30 4 8 8 5 12 -9 4 -13 12 -23 17 -23 5 0
6 -4 3 -10 -3 -5 -2 -10 3 -10 5 0 15 -13 22 -29 6 -16 32 -48 56 -71 24 -23
42 -46 39 -51 -4 -5 -2 -9 3 -9 6 0 58 -47 116 -105 59 -58 111 -105 116 -105
5 0 51 -43 102 -95 51 -52 98 -95 104 -95 7 0 15 -7 18 -16 3 -8 10 -13 15 -9
5 3 16 -3 23 -12 7 -10 21 -22 29 -28 9 -5 44 -29 78 -53 33 -23 61 -39 61
-35 0 4 6 1 13 -7 14 -17 52 -40 117 -71 25 -12 48 -27 52 -33 4 -6 8 -8 8 -4
0 7 18 -1 127 -64 29 -16 57 -27 63 -23 5 3 10 1 10 -6 0 -7 13 -10 35 -7 19
2 35 0 35 -4 0 -4 11 -8 25 -8 15 0 38 -6 53 -13 15 -8 52 -13 82 -12 30 1 67
-5 82 -13 15 -7 32 -11 38 -7 5 3 10 2 10 -3 0 -9 50 -37 63 -34 4 1 7 -3 7
-10 0 -6 3 -8 7 -5 3 4 11 3 17 -2 11 -8 102 -40 134 -46 9 -2 17 -4 17 -5 0
-3 41 -12 63 -14 12 0 22 -4 22 -8 0 -12 105 -21 285 -24 215 -3 215 -3 215
-12 0 -4 72 -8 160 -7 88 0 160 -4 160 -8 0 -4 6 -7 13 -6 6 1 19 -1 28 -5 17
-7 282 -3 309 5 8 3 20 7 25 10 6 3 44 5 85 4 41 -1 80 2 86 6 6 5 20 7 32 4
12 -2 22 0 22 4 0 5 46 9 103 9 98 1 197 18 197 34 0 4 7 5 15 2 8 -4 15 -2
15 4 0 5 10 9 23 9 12 0 36 5 52 12 64 27 100 46 107 56 4 5 8 6 8 2 0 -5 10
-1 22 7 12 9 30 16 40 16 10 0 18 4 18 10 0 5 7 7 15 4 8 -4 15 -2 15 3 0 5
28 8 63 8 34 -1 67 1 72 5 14 10 17 10 205 15 176 5 250 12 250 23 0 4 161 6
357 5 197 -1 365 1 373 4 8 3 18 7 23 8 4 2 8 4 10 5 1 1 13 4 27 5 14 1 32 5
40 8 29 12 135 38 152 38 10 0 20 5 23 10 4 5 11 7 16 4 5 -4 9 -1 9 4 0 6 7
11 15 11 9 0 32 7 53 17 20 9 43 15 50 14 6 -1 12 3 12 9 0 6 5 8 10 5 6 -3
10 -1 10 5 0 7 7 10 15 7 8 -4 17 -2 20 3 3 5 24 14 45 20 22 6 40 15 40 21 0
6 4 8 8 5 12 -7 132 52 132 65 0 6 5 9 12 7 6 -2 22 6 36 19 14 13 31 23 38
23 8 0 14 5 14 10 0 6 6 10 13 8 6 -1 37 11 67 27 30 16 58 29 62 30 4 0 31
21 60 46 29 25 67 54 83 65 17 10 32 22 35 25 3 4 21 13 40 21 19 8 69 45 110
82 41 37 85 76 96 87 12 10 25 19 29 19 3 0 12 6 19 12 8 7 22 19 32 25 11 7
36 24 57 38 21 14 43 27 49 28 15 3 68 54 68 65 0 5 9 17 20 27 11 10 17 21
14 26 -2 5 25 36 60 70 36 34 63 65 61 69 -3 4 2 11 11 14 16 6 71 -41 66 -57
-1 -5 2 -6 7 -2 6 3 18 -7 28 -22 10 -15 30 -40 46 -55 16 -15 26 -32 22 -38
-3 -6 0 -7 9 -4 14 6 21 -5 17 -29 0 -4 6 -7 15 -7 10 0 14 -6 11 -14 -4 -10
-1 -13 9 -9 7 3 14 1 14 -4 0 -6 9 -21 21 -34 56 -66 84 -91 110 -96 16 -3 27
-9 24 -13 -7 -11 56 -4 90 9 37 15 76 51 69 62 -3 5 0 9 5 9 6 0 11 9 11 21 0
11 4 18 9 15 4 -3 6 6 3 19 -2 14 -8 28 -13 30 -4 3 -6 12 -3 19 3 9 -24 45
-66 89 -45 48 -66 77 -58 80 9 4 7 6 -3 6 -17 1 -140 130 -149 157 -3 9 -10
16 -15 16 -17 2 -75 65 -67 73 4 5 2 5 -4 2 -6 -3 -18 3 -27 14 -17 19 -16 21
7 52 13 18 27 42 31 55 3 12 11 22 17 22 6 0 8 3 5 6 -3 4 -1 16 5 28 7 11 11
24 10 29 -1 4 2 7 7 7 5 0 17 21 27 48 10 26 24 57 32 69 7 12 11 27 7 33 -3
5 0 10 7 10 14 0 48 -20 35 -20 -4 0 4 -16 18 -35 15 -19 24 -39 19 -46 -4 -8
-3 -9 4 -5 7 4 12 2 12 -5 0 -6 7 -17 15 -23 9 -6 17 -21 18 -33 0 -12 5 -19
11 -16 5 4 7 -3 3 -16 -3 -13 -3 -20 0 -17 9 8 34 -15 27 -25 -3 -5 -1 -9 4
-9 4 0 7 -15 6 -33 -1 -17 -2 -32 -4 -32 -1 0 -4 -12 -6 -27 -1 -16 1 -28 7
-28 5 0 8 -3 7 -7 -4 -15 13 -53 24 -53 5 0 8 -7 4 -15 -3 -8 -2 -14 2 -13 14
4 52 -13 52 -23 0 -6 5 -7 10 -4 6 3 10 1 10 -4 0 -6 3 -10 8 -9 9 2 60 -11
88 -22 11 -4 27 -4 34 0 8 5 22 4 33 -2 14 -7 17 -7 13 1 -4 7 1 11 13 11 12
0 21 5 21 10 0 6 3 9 8 8 6 -3 51 36 52 45 3 21 14 47 22 47 5 0 5 8 -1 18 -7
13 -6 23 1 30 7 7 8 12 2 12 -5 0 -16 16 -23 35 -7 19 -17 35 -22 35 -6 0 -7
5 -4 10 3 5 1 10 -5 10 -7 0 -10 5 -8 11 2 6 -11 27 -29 46 -18 19 -30 39 -27
45 4 6 2 8 -4 4 -6 -3 -13 3 -17 14 -3 11 -11 20 -16 20 -6 0 -7 5 -4 10 3 6
1 10 -4 10 -6 0 -11 6 -11 13 0 6 -9 23 -20 37 -11 14 -20 32 -20 41 0 9 -7
20 -16 23 -8 3 -12 10 -9 16 3 5 1 10 -4 10 -6 0 -11 7 -11 15 0 9 -6 18 -14
21 -9 3 -12 12 -9 21 4 11 2 14 -5 9 -8 -5 -12 0 -12 13 0 12 -7 21 -16 21 -8
0 -13 4 -10 9 3 5 -1 14 -9 21 -8 7 -12 16 -9 21 3 5 -2 12 -10 15 -9 3 -13
10 -10 15 3 5 -2 12 -10 15 -8 3 -18 15 -21 25 -4 11 -17 31 -31 46 -13 14
-21 30 -17 36 3 5 2 7 -3 4 -6 -3 -15 3 -22 13 -7 11 -8 21 -2 25 5 3 7 12 3
20 -3 8 0 15 6 15 7 0 11 6 10 12 -5 23 13 143 25 173 7 17 11 47 10 68 -1 20
2 37 6 37 4 0 7 41 6 90 -1 50 2 90 5 90 6 0 23 89 33 175 3 22 7 101 10 175
5 145 8 179 17 195 4 6 5 46 5 90 -1 44 2 89 8 100 8 16 22 210 26 343 0 12 4
22 8 22 4 0 7 83 7 185 0 102 -4 185 -8 185 -5 0 -7 14 -5 30 3 17 1 30 -2 30
-4 0 -10 22 -14 48 -3 27 -9 52 -13 56 -8 7 -12 35 -14 89 -1 20 -5 37 -10 37
-4 0 -8 12 -8 28 -1 37 -6 65 -13 77 -9 16 -21 69 -19 83 1 6 -2 12 -7 12 -5
0 -8 11 -7 25 2 14 -1 25 -6 25 -5 0 -7 14 -5 30 2 17 -1 33 -6 36 -4 3 -8 11
-7 17 4 19 -13 109 -27 150 -7 20 -11 37 -7 37 3 0 1 6 -5 13 -6 6 -11 15 -11
20 -1 4 -1 8 -2 10 0 1 -3 13 -5 27 -2 13 -11 35 -19 47 -9 13 -12 23 -9 23 4
0 -1 9 -11 20 -10 11 -15 20 -10 20 4 0 3 6 -2 13 -6 6 -18 37 -28 67 -10 30
-22 61 -28 68 -5 6 -6 12 -2 12 4 0 2 6 -4 14 -6 8 -11 18 -10 22 1 5 -3 22
-9 37 -7 16 -12 34 -12 42 0 8 -5 26 -11 42 -7 15 -13 39 -14 53 -1 14 -7 35
-13 47 -7 13 -10 34 -8 47 2 13 1 27 -2 31 -7 6 -32 142 -33 178 0 9 -4 17 -9
17 -4 0 -7 8 -5 18 1 9 -2 22 -7 29 -5 7 -7 17 -3 23 3 5 2 10 -2 10 -9 0 -33
100 -33 138 0 12 -5 22 -11 22 -6 0 -9 7 -5 15 3 8 2 15 -3 15 -4 0 -7 46 -7
103 1 59 -3 117 -11 137 -15 43 -18 400 -3 400 5 0 7 6 4 14 -3 8 -2 16 3 19
4 3 8 40 7 84 -1 43 3 83 7 89 5 6 7 20 4 32 -2 12 0 22 4 22 9 0 11 790 2
805 -7 13 -12 35 -14 63 0 12 -4 22 -9 22 -4 0 -10 17 -13 38 -4 20 -12 53
-18 72 -6 19 -10 43 -8 54 1 10 -2 22 -9 26 -6 4 -12 26 -13 48 -1 23 -5 42
-8 42 -7 0 -24 88 -21 103 1 4 -2 7 -6 7 -4 0 -8 8 -9 18 0 9 -4 28 -8 42 -4
14 -8 33 -8 43 -1 9 -4 17 -8 17 -4 0 -10 11 -13 24 -3 14 -12 31 -19 38 -7 7
-21 31 -31 53 -57 126 -81 167 -122 213 -56 62 -64 72 -64 80 0 14 -172 171
-221 202 -13 8 -38 29 -55 45 -17 17 -43 36 -58 44 -14 8 -26 18 -26 23 0 5
-4 7 -9 3 -5 -3 -15 1 -23 8 -11 11 -102 59 -118 63 -3 0 -17 6 -31 12 -15 6
-43 14 -63 17 -20 4 -36 10 -36 14 0 4 -10 8 -22 8 -48 3 -68 8 -68 16 0 5
-11 7 -25 5 -14 -3 -28 -2 -30 2 -3 5 -24 11 -48 15 -23 4 -46 10 -51 12 -8 5
-63 13 -118 16 -16 1 -28 6 -28 11 0 4 -7 6 -15 2 -8 -3 -15 -1 -15 4 0 5 -34
8 -75 7 -41 -1 -76 2 -78 6 -1 4 -24 10 -51 13 -27 2 -54 7 -60 11 -5 4 -22 8
-36 9 -25 3 -81 11 -112 17 -10 2 -21 6 -24 10 -4 4 -22 7 -41 7 -18 0 -33 4
-33 8 0 10 -2 10 -105 16 -44 2 -80 5 -80 6 0 2 -21 7 -65 15 -14 3 -50 10
-80 16 -30 6 -92 10 -137 11 -48 0 -83 4 -83 9 0 6 -4 7 -10 4 -5 -3 -16 -3
-22 2 -7 4 -51 9 -98 10 -109 3 -158 8 -167 16 -3 4 -66 7 -139 7 -73 0 -145
5 -161 11 -15 6 -62 11 -103 11 -41 1 -79 4 -85 7 -5 3 -21 6 -35 7 -14 0 -36
5 -50 11 -14 6 -47 17 -75 23 -27 7 -57 15 -65 18 -8 3 -17 6 -20 7 -43 15
-101 50 -116 70 -10 14 -23 25 -28 25 -5 0 -17 6 -25 14 -9 8 -23 16 -31 18
-8 2 -21 9 -29 16 -7 7 -20 11 -28 8 -8 -3 -11 -1 -8 4 3 6 -3 10 -13 10 -11
0 -25 7 -32 15 -7 9 -15 13 -17 11 -5 -5 -37 19 -61 46 -9 9 -19 15 -24 12 -4
-3 -8 -1 -8 4 0 5 -25 17 -55 27 -30 11 -55 23 -55 28 0 4 -4 5 -10 2 -5 -3
-10 -2 -10 3 0 5 -25 8 -56 8 -30 -1 -58 2 -60 6 -6 9 -8 9 -224 14 -102 2
-195 -1 -207 -6z m-3059 -8392 c-3 -4 2 -5 10 -2 9 3 16 1 16 -5 0 -6 5 -11
10 -11 13 0 29 -12 88 -67 25 -24 54 -45 64 -49 11 -3 17 -8 14 -11 -3 -3 8
-16 23 -28 15 -13 41 -43 57 -67 16 -24 61 -75 101 -114 40 -40 73 -77 73 -82
0 -6 7 -15 16 -20 10 -5 14 -15 10 -21 -6 -8 -12 -9 -20 -2 -7 6 -16 8 -19 4
-4 -3 -7 -1 -7 5 0 7 -9 12 -19 12 -25 0 -103 70 -97 87 3 7 2 12 -2 10 -4 -1
-33 23 -65 55 -41 41 -55 61 -51 75 5 15 4 15 -5 3 -10 -13 -15 -8 -12 13 0 4
-4 7 -9 7 -16 0 -70 64 -65 77 2 7 1 12 -3 12 -18 -3 -35 2 -29 8 4 3 -7 16
-23 28 -16 12 -28 24 -25 27 3 2 -6 15 -20 28 -14 13 -25 33 -25 44 0 17 2 18
9 6 6 -8 7 -18 5 -22z"/>
</g>
</svg>
